<?xml version="1.0" encoding="iso-8859-1"?>
<!-- Generator: Adobe Illustrator 19.0.0, SVG Export Plug-In . SVG Version: 6.00 Build 0)  -->
<svg version="1.1" id="Capa_1" xmlns="http://www.w3.org/2000/svg" xmlns:xlink="http://www.w3.org/1999/xlink" x="0px" y="0px"
	 viewBox="0 0 512 512" style="enable-background:new 0 0 512 512;" xml:space="preserve">
<g>
	<g>
		<path d="M447.37,52.913h-33.586v-8.219c0-8.284-6.716-15-15-15s-15,6.716-15,15v8.219h-41.392v-8.219c0-8.284-6.716-15-15-15
			s-15,6.716-15,15v8.219H271v-8.219c0-8.284-6.716-15-15-15s-15,6.716-15,15v8.219h-41.392v-8.219c0-8.284-6.716-15-15-15
			s-15,6.716-15,15v8.219h-41.392v-8.219c0-8.284-6.716-15-15-15s-15,6.716-15,15v8.219H64.63C28.993,52.913,0,81.906,0,117.542
			v300.135c0,35.637,28.993,64.629,64.63,64.629h382.74c35.637,0,64.63-28.993,64.63-64.629V117.542
			C512,81.906,483.007,52.913,447.37,52.913z M482,417.677c0,19.095-15.535,34.629-34.63,34.629H64.63
			c-19.095,0-34.63-15.535-34.63-34.629V172.348h452V417.677z M482,142.348H30v-24.806c0-19.094,15.535-34.629,34.63-34.629h33.586
			v5.799c0,8.284,6.716,15,15,15s15-6.716,15-15v-5.799h41.392v5.799c0,8.284,6.716,15,15,15s15-6.716,15-15v-5.799H241v5.799
			c0,8.284,6.716,15,15,15s15-6.716,15-15v-5.799h41.392v5.799c0,8.284,6.716,15,15,15s15-6.716,15-15v-5.799h41.392v5.799
			c0,8.284,6.716,15,15,15s15-6.716,15-15v-5.799h33.586c19.095,0,34.63,15.535,34.63,34.629V142.348z"/>
	</g>
</g>
<g>
	<g>
		<path d="M167.215,204.329h-59.189c-8.284,0-15,6.716-15,15v61.239c0,8.284,6.716,15,15,15h59.189c8.284,0,15-6.716,15-15v-61.239
			C182.215,211.045,175.5,204.329,167.215,204.329z M152.215,265.568h-29.189v-31.239h29.189V265.568z"/>
	</g>
</g>
<g>
	<g>
		<path d="M285.595,204.329h-59.189c-8.284,0-15,6.716-15,15v61.239c0,8.284,6.716,15,15,15h59.189c8.284,0,15-6.716,15-15v-61.239
			C300.595,211.045,293.879,204.329,285.595,204.329z M270.595,265.568h-29.189v-31.239h29.189V265.568z"/>
	</g>
</g>
<g>
	<g>
		<path d="M403.974,204.329h-59.189c-8.284,0-15,6.716-15,15v61.239c0,8.284,6.716,15,15,15h59.189c8.284,0,15-6.716,15-15v-61.239
			C418.974,211.045,412.258,204.329,403.974,204.329z M388.974,265.568h-29.189v-31.239h29.189V265.568z"/>
	</g>
</g>
<g>
	<g>
		<path d="M167.215,320.658h-59.189c-8.284,0-15,6.716-15,15v61.239c0,8.284,6.716,15,15,15h59.189c8.284,0,15-6.716,15-15v-61.239
			C182.215,327.374,175.5,320.658,167.215,320.658z M152.215,381.898h-29.189v-31.239h29.189V381.898z"/>
	</g>
</g>
<g>
	<g>
		<path d="M285.595,320.658h-59.189c-8.284,0-15,6.716-15,15v61.239c0,8.284,6.716,15,15,15h59.189c8.284,0,15-6.716,15-15v-61.239
			C300.595,327.374,293.879,320.658,285.595,320.658z M270.595,381.898h-29.189v-31.239h29.189V381.898z"/>
	</g>
</g>
<g>
	<g>
		<path d="M403.974,320.658h-59.189c-8.284,0-15,6.716-15,15v61.239c0,8.284,6.716,15,15,15h59.189c8.284,0,15-6.716,15-15v-61.239
			C418.974,327.374,412.258,320.658,403.974,320.658z M388.974,381.898h-29.189v-31.239h29.189V381.898z"/>
	</g>
</g>
<g>
</g>
<g>
</g>
<g>
</g>
<g>
</g>
<g>
</g>
<g>
</g>
<g>
</g>
<g>
</g>
<g>
</g>
<g>
</g>
<g>
</g>
<g>
</g>
<g>
</g>
<g>
</g>
<g>
</g>
</svg>
